<?xml version="1.0" encoding="UTF-8" standalone="no"?>
<!-- https://www.amcharts.com/svg-maps -->

<svg
    xmlns="http://www.w3.org/2000/svg"
    id="cyprus-map"
    viewBox="0 110 607 390"
    preserveAspectRatio="xMidYMid meet"
>

  <defs
     id="defs4">
    <style>
    .land {
        fill: #16483d;
        fill-opacity: 1;
        stroke: #43d995;
        stroke-opacity: 1;
        stroke-width: 1.2;
        stroke-linejoin: round;
        }
        </style>
    <!-- <amcharts:ammap projection="mercator" leftLongitude="32.271509" topLatitude="35.695073" rightLongitude="34.589764" bottomLatitude="34.565124"></amcharts:ammap> -->
    <!-- All areas are listed in the line below. You can use this list in your script. -->
    <!--{id:"CY-01"},{id:"CY-02"},{id:"CY-03"},{id:"CY-04"},{id:"CY-05"},{id:"CY-06"}-->
  </defs>
  <path
     d="m 174.11167,273.70294 13.29,4.11 0.89,-1.24 7.19,-0.29 1.15,1.08 5.62,-3.89 -0.18,3.57 7.22,3.83 2.25,-1.63 5.21,0.45 v 0 l 6.96,-0.77 v 0 l 2.96,1.59 1.1,-1.66 2.93,2.01 0.78,-3.13 3.56,1.72 -1.2,-1.79 0.86,-0.86 3.24,2.81 5.78,-0.54 3.06,2.1 1.07,3.63 3.92,-0.7 0.86,1.31 0.63,-3.48 2.33,0.35 0.39,-2.42 1.57,1.02 3.09,-1.66 5.55,3.73 0.81,-1.53 6.59,1.21 2.17,2.39 1.33,-1.4 12.56,0.54 16.35,-4.18 0.47,-5.93 3.48,-3.92 8.61,0.64 4.08,-1.72 3.82,0.89 -3.32,1.31 1.94,0.7 5.07,-2.23 3.35,1.53 2.07,-0.86 v 0 l 1.18,11.35 2.8,1.28 1.41,3.35 -4.24,2.81 3.43,14.85 -0.94,2.68 -6.54,6.53 2.49,4.68 9.44,1.53 1.73,4.23 v 0 l -3.74,6.65 -9.13,-2.13 -1.46,-2.67 -3.82,-1.05 -5.39,4.68 1.31,4.23 -5.42,4.1 -1.18,5.76 h 3.48 l 3.5,12.12 2.17,0.64 -0.21,2.61 -1.96,-0.67 0.34,5.63 -3.4,2.48 0.58,4.67 -7.72,-3.72 -5.86,4.61 -6.2,-4 -3.66,-0.6 1.31,7.37 -2.41,5.27 -2.41,1.33 -5.94,-1.94 -8.58,2.67 -0.86,-2.45 -3.92,-2.41 -4.71,4.16 -0.99,3.94 -11.09,8.26 -3.9,-0.06 1.44,-0.83 -0.05,-2.92 -3.74,-0.22 0.58,-1.9 -10.12,2.38 -0.84,-2.83 -2.2,-0.25 -1.2,1.56 -2.72,-2.79 -2.04,1.94 0.58,2.35 -4.55,0.57 -4.68,4.76 v 0 l -4.58,-0.79 -1.44,-2.6 -3.61,-1.02 -3.74,0.41 -3.19,2.54 -3.4,-2.67 -2.51,-6.6 -8.55,-3.24 -5.05,-7.02 -9.52,-1.49 -10.36,6.93 -5.86,-1.56 -7.3,0.67 -2.15,-2.67 -3.32,0.25 -12.01,-5.4 -1.7,3.43 -3.98,-0.06 -1.07,1.46 0.76,3.08 -1.99,9.62 v 0 l -2.85,0.92 -0.13,-2.64 -4.71,-1.87 -1.86,1.37 -3.11,7.84 -6.46,-2.54 3.61,-2.92 -5.18,-0.83 -1.02,5.49 -2.48,-4.7 -2.64,-1.62 -1.23,-7.34 3.09,-0.92 -0.18,-4.35 1.91,-3.21 -0.81,-5.47 -2.33,-0.57 2.35,-3.05 -0.24,-2.19 -1.86,-3.88 -1.96,-0.76 -1.7,-5.66 -7.010003,-2.29 -2.93,-7.03 -2.25,-0.6 2.22,-4.49 3.11,0.29 1.7,-1.85 v -10.76 l -5.91,-2.39 0.05,-5.19 -4.81,-2.36 -3.4,-4.87 -4.37,-2.99 v 0 l 6.04,-2.74 3.95,0.16 4.68,-4.56 1.88,1.15 3.43,-1.88 6.540003,0.22 2.59,2.33 15.77,2.23 1.57,2.17 9.94,3.66 3.17,3.18 7.93,3.69 3.87,-0.8 11.17,-6.05 4.53,-4.87 3.82,-7.65 z"
     class="land"
     title="Nicosia"
     id="CY-01"
      />
  <path
     d="m 130.92167,388.23294 1.99,-9.63 -0.76,-3.08 1.08,-1.46 3.97,0.07 1.7,-3.44 12.01,5.4 3.32,-0.25 2.14,2.67 7.3,-0.67 5.86,1.56 10.36,-6.93 9.52,1.5 5.05,7.02 8.55,3.24 2.51,6.6 3.4,2.67 3.2,-2.54 3.74,-0.42 3.61,1.02 1.43,2.6 4.58,0.8 v 0 l -1.59,7.42 4.08,0.54 0.96,1.78 5.05,-0.38 4.89,2.76 5.97,0.54 6.83,6.41 1.49,4.37 5.28,2.99 4.16,7.48 -1.94,12.04 2.02,6.69 v 0 l -1.21,3.13 -2.95,0.95 -17.13,-0.25 -11.96,-2.22 -21.71,7.98 -5.88,6.12 -2.7,-0.07 -2.59,2.63 0.47,3.01 -2.01,-1.4 -2.85,9.72 0.65,9.36 7.17,8.07 -2.25,1.52 -14.02,-3.35 -2.54,1.67 -4.47,-0.85 -3.66,1.29 1.93,-2.49 -0.7,-5.03 -3.82,-8.86 -3.51,-5.95 -9.28,-9.02 -6.8,-0.89 -1.47,1.9 -4.79,-1.2 -1.28,1.64 -7.37,-0.79 -4.56,2.35 h -3.61 l -3.87,3.16 -6.12,-0.98 -1.46,2.56 -3.27,0.32 -6.59,-3.58 -8.110003,-1.99 v 0 l 0.29,-10.04 -2.04,-4.21 4.730003,-2.25 0.76,-4.53 4.63,-0.54 4.73,-5.1 4.95,-1.33 1.2,-6.62 1.28,-0.57 -1.99,-2.86 -3.37,-0.7 0.26,-2.4 -1.62,-0.99 2.95,-3.11 2.18,0.77 1.96,-5.84 5.7,-2.28 1.23,-7.2 10.46,-8.22 -0.42,-3.72 -4.44,-1.17 z"
     class="land"
     title="Limassol"
     id="CY-02"
      />
  <path
     d="m 346.30167,323.69294 7.12,-1.56 0.94,2.29 7.22,4.3 0.99,12.57 5.55,-0.77 0.99,-2.41 3.4,-0.23 4.42,-3.88 1.15,1.21 -2.9,6.81 2.17,3.69 6.78,-4.3 3.5,2.1 0.21,3.37 3.98,2.45 0.1,2.61 3.61,0.41 -0.86,1.98 8,0.06 2.83,2.48 11.64,-0.35 3.71,12.01 2.88,1.12 2.72,-0.86 v 0 l -2.8,4.89 -8.66,3.53 -7.3,-6.39 -13.91,-5.37 -11.28,-0.76 -13.83,3.14 -6.02,4.17 -2.85,4.44 -1.31,3.94 1.31,2.04 -1.07,-0.67 0.31,3.68 -1.36,0.92 0.03,15.34 -7.82,9.64 -1.52,6.09 -5.28,-1.55 -8.19,0.44 -13.55,10.37 -1.15,2.82 -6.33,0.41 -11.28,3.78 -3.32,3.45 -5.78,1.46 -6.17,5.04 -6.18,0.06 -5.72,3.77 -2.46,0.06 0.94,1.11 -3.85,-2.72 -4.21,-0.16 -3.16,1.84 v 0 l -2.02,-6.69 1.94,-12.04 -4.16,-7.48 -5.28,-2.99 -1.49,-4.37 -6.83,-6.41 -5.97,-0.54 -4.89,-2.76 -5.05,0.38 -0.96,-1.78 -4.08,-0.54 1.59,-7.42 v 0 l 4.68,-4.76 4.56,-0.58 -0.58,-2.35 2.04,-1.93 2.72,2.79 1.2,-1.55 2.2,0.25 0.84,2.83 10.12,-2.39 -0.57,1.91 3.74,0.22 0.05,2.92 -1.44,0.83 3.9,0.06 11.09,-8.25 0.99,-3.94 4.71,-4.16 3.92,2.41 0.87,2.45 8.58,-2.67 5.93,1.94 2.41,-1.34 2.41,-5.27 -1.31,-7.37 3.66,0.6 6.2,4.01 5.86,-4.61 7.72,3.72 -0.58,-4.68 3.4,-2.47 -0.34,-5.63 1.96,0.67 0.21,-2.61 -2.17,-0.63 -3.5,-12.12 h -3.48 l 1.17,-5.76 5.42,-4.1 -1.31,-4.23 5.39,-4.68 3.82,1.05 1.46,2.67 9.13,2.13 z"
     class="land"
     title="Larnaca"
     id="CY-03"
      />
  <path
     d="m 606.46167,136.48294 -4.21,8.08 0.47,4.78 -3.03,4.39 -7.19,0.77 -1.05,1.75 -4.71,0.13 -4.58,3.75 -7.51,1.44 -10.96,8.17 -4.18,11.36 -2.59,0.51 -5.44,5.15 -5.54,1.73 -17.92,16.63 -25.56,11.38 -14.12,9.43 -14.81,15.97 -1.49,8.94 -2.85,3.99 -13.52,2.2 -3.84,-2.2 -5.65,0.8 -8.87,6.64 -9.99,16.94 -0.97,15.65 3.11,8.63 -0.42,2.42 1.05,2.33 1.99,0.32 4.03,8.34 3.14,0.45 0.37,1.15 -1.75,-0.38 1.05,1.31 1.6,-0.35 1.62,5.63 7.11,10.18 9.91,7.86 7.53,11.13 2.56,1.11 -0.08,3.12 3.9,5.05 -2.2,1.88 1.67,4.16 2.3,0.54 0.5,1.56 -0.58,1.65 -2.56,-2.7 -2.48,1.88 -3.11,-2.96 -6.72,-2.03 -3.48,-2.77 -8.71,0.38 -3.17,-1.94 -3.43,0.6 -0.39,1.97 -1.83,-0.64 -12.42,4.04 v 0 l -2.72,0.86 -2.88,-1.11 -3.71,-12.01 -11.64,0.35 -2.83,-2.48 -8,-0.06 0.86,-1.97 -3.61,-0.41 -0.1,-2.61 -3.98,-2.45 -0.21,-3.37 -3.5,-2.1 -6.77,4.29 -2.17,-3.69 2.9,-6.81 -1.15,-1.21 -4.42,3.88 -3.4,0.22 -0.99,2.42 -5.55,0.76 -0.99,-12.57 -7.22,-4.3 -0.94,-2.29 -7.12,1.56 v 0 l -1.73,-4.23 -9.44,-1.53 -2.49,-4.68 6.54,-6.53 0.94,-2.68 -3.43,-14.85 4.24,-2.81 -1.41,-3.35 -2.8,-1.28 -1.18,-11.35 v 0 l -1.65,-4.34 17.89,-7.47 1.78,-2.62 2.54,0.77 6.36,-1.79 0.81,-2.3 2.41,-0.64 0.37,-2.23 -4.11,-1.25 -0.76,-3.29 v 0 l 1.05,-1.47 2.43,0.51 5.39,-2.4 5.99,-5.84 16.64,-8.21 20.51,0.22 7.77,-2.46 2.56,-2.36 2.56,0.58 4.94,-1.76 0.47,-1.41 3.87,0.19 4.26,-3.23 6.51,-0.38 13.31,-7.83 4.87,-0.93 9.16,-7.29 2.07,0.54 9.81,-3.55 7.69,-11.2 3.74,-1.79 2.04,-5.38 3.87,1.76 3.32,-0.06 1.2,-1.54 1.36,1.92 1.78,-1.73 2.54,1.25 5,-4.51 3.19,0.16 4.5,-3.04 2.67,1.18 7.87,-5.12 1.78,-4.07 1.8,1.15 3.17,-3.07 0.18,-4.1 5.73,-0.93 4.34,-3.3 6.38,0.13 8.03,-6.57 5.91,0.99 4.84,-2.47 2.62,0.38 3.61,-3.11 0.24,-2.4 4.94,1.76 3.61,-2.34 1.73,-3.27 z"
     class="land"
     title="Famagusta"
     id="CY-04"
      />
  <path
     d="m 75.421667,304.62294 2.12,0.19 v 0 l 4.37,2.99 3.4,4.87 4.81,2.36 -0.05,5.19 5.91,2.39 v 10.76 l -1.7,1.85 -3.11,-0.29 -2.22,4.49 2.25,0.6 2.93,7.03 7.010003,2.29 1.7,5.66 1.96,0.76 1.86,3.88 0.24,2.19 -2.35,3.05 2.33,0.57 0.81,5.47 -1.91,3.21 0.18,4.35 -3.09,0.92 1.23,7.34 2.64,1.62 2.48,4.7 1.02,-5.49 5.18,0.83 -3.61,2.92 6.46,2.54 3.11,-7.84 1.86,-1.37 4.71,1.87 0.13,2.64 2.85,-0.92 v 0 l 0.86,4.92 4.45,1.17 0.42,3.71 -10.46,8.22 -1.23,7.2 -5.7,2.28 -1.96,5.84 -2.17,-0.76 -2.96,3.11 1.62,0.98 -0.26,2.41 3.37,0.7 1.99,2.85 -1.28,0.57 -1.2,6.62 -4.94,1.33 -4.73,5.1 -4.63,0.54 -0.76,4.53 -4.730003,2.25 2.04,4.21 -0.29,10.04 v 0 l -9.44,-3.17 -5.49,-4.59 -9.63,-4.91 -6.17,0.03 -4.05,-3.1 -5.39,1.3 -12.01,-9.76 -3.71,-0.32 -4.94,-6.56 -4,0.25 1.73,-3.68 -1.46,-5.93 -1.86,-1.59 -1.44,-15.67 -1.78,-2.32 -3.3,-0.1 -0.42,-2.35 -1.52,1.02 -0.34,-1.84 -3.19,0.16 -1.57,-4.95 -6.57,-8.48 2.33,-3.24 0.05,-4.64 -3.37,-7.27 -2.7199997,-0.86 0.03,-2.64 1.75,0.57 1.2799997,-1.91 -1.13,-2.13 1.13,-8.2 -4.6799997,-6.87 -1.62,0.25 -4.63000004,-9.95 0.39,-12.98 0.81000004,-3.15 2.41,-2.01 4.55,4.58 0.44,2.48 14.1799997,11.48 11.01,2.64 7.93,-1.94 12.84,-9.51 6.98,-10.85 4.42,-10.79 4.29,-2.83 2.83,-6.63 1.26,-0.51 z"
     class="land"
     title="Paphos"
     id="CY-05"
      />
  <path
     d="m 173.12167,232.91294 9.02,3.16 7.35,6.45 9.65,-0.13 8.79,4.25 8.5,0.35 4.47,-4.57 1.1,1.56 3.45,-0.35 9.5,4.21 3.82,0.42 3.06,-2.52 h 2.64 l 10.07,4.44 3.87,-2.01 4.53,1.92 3.48,-1.18 3.69,2.07 7.25,0.1 4.6,2.17 3.56,-0.83 2.59,1.05 1.81,-1.4 1.28,1.28 10.91,0.77 9.68,-1.66 4.58,1.44 13.71,-4.47 h 8.97 l 10.67,-4.47 1.44,1.69 10.04,-1.37 v 0 l 0.76,3.29 4.11,1.25 -0.37,2.23 -2.41,0.64 -0.81,2.3 -6.36,1.79 -2.54,-0.77 -1.78,2.62 -17.89,7.47 1.65,4.34 v 0 l -2.07,0.86 -3.35,-1.53 -5.07,2.23 -1.94,-0.7 3.32,-1.31 -3.82,-0.89 -4.08,1.72 -8.61,-0.64 -3.48,3.92 -0.47,5.93 -16.35,4.18 -12.56,-0.54 -1.33,1.4 -2.17,-2.39 -6.59,-1.21 -0.81,1.53 -5.55,-3.73 -3.09,1.66 -1.57,-1.02 -0.39,2.42 -2.33,-0.35 -0.63,3.48 -0.86,-1.31 -3.92,0.7 -1.07,-3.63 -3.06,-2.1 -5.78,0.54 -3.24,-2.81 -0.86,0.86 1.2,1.79 -3.56,-1.72 -0.78,3.13 -2.93,-2.01 -1.1,1.66 -2.96,-1.59 v 0 l -6.96,0.77 v 0 l -5.21,-0.45 -2.25,1.63 -7.22,-3.83 0.18,-3.57 -5.62,3.89 -1.15,-1.08 -7.19,0.29 -0.89,1.24 -13.29,-4.11 v 0 l 0.86,-11.68 -1.1,-11.58 -3.35,-4.98 -0.37,-14.47 z"
     class="land"
     title="Kyrenia"
     id="CY-06"
      />
  <g
     id="stadiums"
     data-country="cyprus"
     data-circle-radius="6"
     data-circle-colors="#a149be,#bea149" />
</svg>
